<svg width="96" height="96" viewBox="0 0 96 96" fill="none" xmlns="http://www.w3.org/2000/svg">
<rect width="96" height="96" rx="14" fill="#FDB002"/>
<path d="M87.4 48.9C87.4 45.8 87.08 42.82 86.54 40H49V56H70.46C69.56 61.06 66.74 65.36 62.46 68.22V78.32H75.46C83.02 71.36 87.4 61.08 87.4 48.9Z" fill="#572C00"/>
<path d="M48.9998 88C59.7998 88 68.8398 84.42 75.4798 78.32L62.4798 68.22C58.8998 70.6 54.3398 72 48.9998 72C38.6198 72 29.8198 64.98 26.6998 55.54H13.2998V65.94C19.8598 79.02 33.3598 88 48.9998 88Z" fill="#3F2000"/>
<path d="M26.7 55.5396C25.9 53.1596 25.46 50.6196 25.46 47.9996C25.46 45.3796 25.9 42.8396 26.7 40.4596V30.0596H13.3C10.56 35.4596 9 41.5396 9 47.9996C9 54.4596 10.56 60.5396 13.28 65.9396L26.7 55.5396Z" fill="#382C00"/>
<path d="M48.9998 24C54.8598 24 60.0998 26.02 64.2398 29.96L75.7598 18.44C68.8398 11.96 59.7798 8 48.9998 8C33.3598 8 19.8598 16.98 13.2798 30.06L26.6798 40.46C29.8198 31.02 38.6198 24 48.9998 24Z" fill="#4B3900"/>
</svg>
